<?xml version="1.0" encoding="UTF-8" standalone="no"?>
<!-- Created with Inkscape (http://www.inkscape.org/) -->

<svg
   xmlns:dc="http://purl.org/dc/elements/1.1/"
   xmlns:cc="http://creativecommons.org/ns#"
   xmlns:rdf="http://www.w3.org/1999/02/22-rdf-syntax-ns#"
   xmlns:svg="http://www.w3.org/2000/svg"
   xmlns="http://www.w3.org/2000/svg"
   xmlns:sodipodi="http://sodipodi.sourceforge.net/DTD/sodipodi-0.dtd"
   xmlns:inkscape="http://www.inkscape.org/namespaces/inkscape"
   width="474.28568"
   height="371.42856"
   id="svg2"
   version="1.1"
   inkscape:version="0.47 r22583"
   sodipodi:docname="New document 1">
  <defs
     id="defs4">
    <inkscape:perspective
       sodipodi:type="inkscape:persp3d"
       inkscape:vp_x="0 : 526.18109 : 1"
       inkscape:vp_y="0 : 1000 : 0"
       inkscape:vp_z="744.09448 : 526.18109 : 1"
       inkscape:persp3d-origin="372.04724 : 350.78739 : 1"
       id="perspective10" />
  </defs>
  <sodipodi:namedview
     id="base"
     pagecolor="#ffffff"
     bordercolor="#666666"
     borderopacity="1.0"
     inkscape:pageopacity="0.0"
     inkscape:pageshadow="2"
     inkscape:zoom="0.35"
     inkscape:cx="-97.160871"
     inkscape:cy="185.11457"
     inkscape:document-units="px"
     inkscape:current-layer="layer1"
     showgrid="false"
     inkscape:window-width="1024"
     inkscape:window-height="697"
     inkscape:window-x="0"
     inkscape:window-y="25"
     inkscape:window-maximized="1" />
  <metadata
     id="metadata7">
    <rdf:RDF>
      <cc:Work
         rdf:about="">
        <dc:format>image/svg+xml</dc:format>
        <dc:type
           rdf:resource="http://purl.org/dc/dcmitype/StillImage" />
        <dc:title></dc:title>
      </cc:Work>
    </rdf:RDF>
  </metadata>
  <g
     inkscape:label="Layer 1"
     inkscape:groupmode="layer"
     id="layer1"
     transform="translate(-94.285722,-429.50506)">
    <g
       id="g2963"
       transform="matrix(0.94318181,0,0,0.94202902,-48.53896,102.95268)">
      <path
         transform="translate(2.8571429,5.7142854)"
         d="m 537.14284,543.79077 c 0,100.98922 -65.23851,182.85715 -145.71428,182.85715 -80.47578,0 -145.71428,-81.86793 -145.71428,-182.85715 0,-100.98921 65.2385,-182.85715 145.71428,-182.85715 80.47577,0 145.71428,81.86794 145.71428,182.85715 z"
         sodipodi:ry="182.85715"
         sodipodi:rx="145.71428"
         sodipodi:cy="543.79077"
         sodipodi:cx="391.42856"
         id="path2818"
         style="fill:#ff9955"
         sodipodi:type="arc" />
      <path
         transform="matrix(0.43103446,0,0,0.68750001,140.19705,146.54176)"
         d="m 417.14285,523.79077 c 0,25.2473 -37.09641,45.71429 -82.85714,45.71429 -45.76074,0 -82.85714,-20.46699 -82.85714,-45.71429 0,-25.2473 37.0964,-45.71429 82.85714,-45.71429 45.76073,0 82.85714,20.46699 82.85714,45.71429 z"
         sodipodi:ry="45.714287"
         sodipodi:rx="82.85714"
         sodipodi:cy="523.79077"
         sodipodi:cx="334.28571"
         id="path2822"
         style="fill:#800080"
         sodipodi:type="arc" />
      <path
         transform="matrix(1,0,0,1.0526316,57.142857,-28.470192)"
         d="m 488.57142,513.79077 c 0,14.99059 -15.35024,27.14286 -34.28571,27.14286 -18.93548,0 -34.28572,-12.15227 -34.28572,-27.14286 0,-14.99058 15.35024,-27.14286 34.28572,-27.14286 18.93547,0 34.28571,12.15228 34.28571,27.14286 z"
         sodipodi:ry="27.142857"
         sodipodi:rx="34.285713"
         sodipodi:cy="513.79077"
         sodipodi:cx="454.28571"
         id="path2824"
         style="fill:#800080"
         sodipodi:type="arc" />
      <rect
         y="455.21933"
         x="271.42856"
         height="48.57143"
         width="22.857143"
         id="rect2826"
         style="fill:#800080" />
      <rect
         y="455.21933"
         x="491.42856"
         height="34.285713"
         width="22.857143"
         id="rect2830"
         style="fill:#800080" />
      <path
         transform="matrix(0.92552006,0,0,-1.4285714,937.5934,1082.6755)"
         sodipodi:end="3.1163563"
         sodipodi:start="0"
         d="m -454.28569,435.21933 c 0,44.18278 -60.12177,80 -134.28572,80 -72.84395,0 -132.40484,-34.59873 -134.24296,-77.98131 l 134.24296,-2.01869 z"
         sodipodi:ry="80"
         sodipodi:rx="134.28572"
         sodipodi:cy="435.21933"
         sodipodi:cx="-588.57141"
         id="path2834"
         style="fill:#800080"
         sodipodi:type="arc" />
      <path
         transform="matrix(1,0,0,-1,417.14286,1150.4387)"
         sodipodi:end="3.1163563"
         sodipodi:start="1.5707963"
         d="m -131.42857,700.93363 c -17.04859,0 -30.98837,-16.0637 -31.41857,-36.20561 l 31.41857,-0.93725 z"
         sodipodi:ry="37.142857"
         sodipodi:rx="31.428572"
         sodipodi:cy="663.79077"
         sodipodi:cx="-131.42857"
         id="path2838"
         style="fill:#800080"
         sodipodi:type="arc" />
      <path
         transform="matrix(0,0.5998726,1,0,50.504085,980.82076)"
         sodipodi:end="3.1163563"
         sodipodi:start="1.5707963"
         d="m -814.2857,489.50504 c -30.99743,0 -56.34249,-14.82802 -57.12467,-33.42056 l 57.12466,-0.86515 z"
         sodipodi:ry="34.285713"
         sodipodi:rx="57.142857"
         sodipodi:cy="455.21933"
         sodipodi:cx="-814.28571"
         id="path2840"
         style="fill:#800080"
         sodipodi:type="arc" />
      <g
         transform="translate(1082.8571,60)"
         id="g2850">
        <path
           sodipodi:type="arc"
           style="fill:#000000"
           id="path2842"
           sodipodi:cx="-741.42859"
           sodipodi:cy="433.79074"
           sodipodi:rx="15.714286"
           sodipodi:ry="18.571428"
           d="m -725.7143,433.79074 c 0,10.25672 -7.03553,18.57143 -15.71429,18.57143 -8.67876,0 -15.71428,-8.31471 -15.71428,-18.57143 0,-10.25672 7.03552,-18.57143 15.71428,-18.57143 8.67876,0 15.71429,8.31471 15.71429,18.57143 z" />
        <path
           sodipodi:type="arc"
           style="fill:#b3b3b3"
           id="path2846"
           sodipodi:cx="-737.14288"
           sodipodi:cy="432.36218"
           sodipodi:rx="8.5714283"
           sodipodi:ry="8.5714283"
           d="m -728.57146,432.36218 c 0,4.73387 -3.83755,8.57143 -8.57142,8.57143 -4.73387,0 -8.57143,-3.83756 -8.57143,-8.57143 0,-4.73387 3.83756,-8.57143 8.57143,-8.57143 4.73387,0 8.57142,3.83756 8.57142,8.57143 z" />
      </g>
      <g
         transform="translate(1114.2857,60)"
         id="g2854">
        <path
           sodipodi:type="arc"
           style="fill:#000000"
           id="path2844"
           sodipodi:cx="-681.42859"
           sodipodi:cy="432.36218"
           sodipodi:rx="15.714286"
           sodipodi:ry="17.142857"
           d="m -665.7143,432.36218 c 0,9.46774 -7.03553,17.14286 -15.71429,17.14286 -8.67876,0 -15.71428,-7.67512 -15.71428,-17.14286 0,-9.46774 7.03552,-17.14285 15.71428,-17.14285 8.67876,0 15.71429,7.67511 15.71429,17.14285 z" />
        <path
           sodipodi:type="arc"
           style="fill:#b3b3b3"
           id="path2848"
           sodipodi:cx="-677.14288"
           sodipodi:cy="429.50504"
           sodipodi:rx="8.5714283"
           sodipodi:ry="8.5714283"
           d="m -668.57146,429.50504 c 0,4.73386 -3.83755,8.57142 -8.57142,8.57142 -4.73387,0 -8.57143,-3.83756 -8.57143,-8.57142 0,-4.73387 3.83756,-8.57143 8.57143,-8.57143 4.73387,0 8.57142,3.83756 8.57142,8.57143 z" />
      </g>
      <g
         transform="matrix(0.56556697,0,0,1,908.61263,-68.571429)"
         id="g2881">
        <g
           id="g2860">
          <path
             sodipodi:end="3.040924"
             sodipodi:start="0"
             d="m -828.57142,599.50507 c 0,26.03628 -38.37559,47.14285 -85.71429,47.14285 -44.00302,0 -80.85808,-18.32592 -85.28033,-42.40506 l 85.28033,-4.73779 z"
             sodipodi:ry="47.142857"
             sodipodi:rx="85.714287"
             sodipodi:cy="599.50507"
             sodipodi:cx="-914.28571"
             id="path2858"
             style="fill:#cccccc"
             sodipodi:type="arc" />
        </g>
        <rect
           style="fill:#000000"
           id="rect2869"
           width="160"
           height="2.8571429"
           x="-988.57141"
           y="620.93359" />
        <rect
           style="fill:#000000"
           id="rect2871"
           width="5.7142859"
           height="37.142857"
           x="-857.14288"
           y="598.07648" />
        <rect
           style="fill:#000000"
           id="rect2873"
           width="14.285714"
           height="45.714287"
           x="-882.85712"
           y="600.93359" />
        <rect
           style="fill:#000000"
           id="rect2875"
           width="5.7142859"
           height="51.42857"
           x="-908.57141"
           y="598.07648" />
        <rect
           style="fill:#000000"
           id="rect2877"
           width="11.428572"
           height="51.42857"
           x="-937.14288"
           y="600.93359" />
        <rect
           style="fill:#000000"
           id="rect2879"
           width="11.428572"
           height="40"
           x="-965.71429"
           y="603.79077" />
      </g>
      <rect
         y="580.93365"
         x="251.42857"
         height="40"
         width="282.85715"
         id="rect2893"
         style="fill:#b3b3b3" />
      <g
         transform="translate(1360,-151.42857)"
         id="g2920">
        <rect
           style="fill:#808080"
           id="rect2895"
           width="62.857143"
           height="42.857143"
           x="-997.14288"
           y="732.36218" />
        <g
           id="g2915"
           transform="matrix(0.37177043,0,0,0.54166665,-770.02443,226.85649)">
          <path
             d="m -491.42858,978.07648 c 0,18.93547 -15.35024,34.28572 -34.28571,34.28572 -18.93548,0 -34.28572,-15.35025 -34.28572,-34.28572 0,-18.93548 15.35024,-34.28572 34.28572,-34.28572 18.93547,0 34.28571,15.35024 34.28571,34.28572 z"
             sodipodi:ry="34.285713"
             sodipodi:rx="34.285713"
             sodipodi:cy="978.07648"
             sodipodi:cx="-525.71429"
             id="path2909"
             style="fill:#000000"
             sodipodi:type="arc" />
          <path
             transform="matrix(0,0.62469436,-1,0,464.53299,1534.575)"
             sodipodi:end="3.0845119"
             sodipodi:start="0"
             d="m -848.5714,1008.0765 c 0,27.6142 -15.35024,50 -34.28572,50 -18.17564,0 -33.19295,-20.6846 -34.22987,-47.1475 l 34.22987,-2.8525 z"
             sodipodi:ry="50"
             sodipodi:rx="34.285713"
             sodipodi:cy="1008.0765"
             sodipodi:cx="-882.85712"
             id="path2911"
             style="fill:#000000"
             sodipodi:type="arc" />
          <path
             transform="matrix(0,0.49959251,2.4,0,-2879.9177,1516.1927)"
             sodipodi:end="3.0845119"
             sodipodi:start="0"
             d="m -1025.7143,980.93359 c 0,15.77957 -20.467,28.57141 -45.7143,28.57141 -24.2342,0 -44.2573,-11.81972 -45.6398,-26.94141 l 45.6398,-1.63 z"
             sodipodi:ry="28.571428"
             sodipodi:rx="45.714287"
             sodipodi:cy="980.93359"
             sodipodi:cx="-1071.4286"
             id="path2913"
             style="fill:#000000"
             sodipodi:type="arc" />
        </g>
      </g>
      <path
         transform="matrix(0.5,0,0,0.38235296,831.42861,203.68588)"
         d="m -1000,1035.2194 c 0,26.8252 -14.0711,48.5714 -31.4286,48.5714 -17.3575,0 -31.4286,-21.7462 -31.4286,-48.5714 0,-26.8253 14.0711,-48.57147 31.4286,-48.57147 17.3575,0 31.4286,21.74617 31.4286,48.57147 z"
         sodipodi:ry="48.57143"
         sodipodi:rx="31.428572"
         sodipodi:cy="1035.2194"
         sodipodi:cx="-1031.4286"
         id="path2929"
         style="fill:#ff0000"
         sodipodi:type="arc" />
      <g
         transform="matrix(0.48333336,0,0,0.63636394,852.7143,-66.15432)"
         id="g2939">
        <path
           sodipodi:type="arc"
           style="fill:#ff0000"
           id="path2931"
           sodipodi:cx="-851.42859"
           sodipodi:cy="1046.6479"
           sodipodi:rx="14.285714"
           sodipodi:ry="28.571428"
           d="m -837.14287,1046.6479 c 0,15.7796 -6.39594,28.5715 -14.28572,28.5715 -7.88978,0 -14.28571,-12.7919 -14.28571,-28.5715 0,-15.7795 6.39593,-28.5714 14.28571,-28.5714 7.88978,0 14.28572,12.7919 14.28572,28.5714 z" />
        <path
           sodipodi:type="arc"
           style="fill:#ffff00"
           id="path2933"
           sodipodi:cx="-794.28571"
           sodipodi:cy="1045.2194"
           sodipodi:rx="11.428572"
           sodipodi:ry="30"
           d="m -782.85713,1045.2194 c 0,16.5685 -5.11675,30 -11.42858,30 -6.31182,0 -11.42857,-13.4315 -11.42857,-30 0,-16.5686 5.11675,-30 11.42857,-30 6.31183,0 11.42858,13.4314 11.42858,30 z" />
        <path
           sodipodi:type="arc"
           style="fill:#0000ff"
           id="path2935"
           sodipodi:cx="-745.71429"
           sodipodi:cy="1042.3622"
           sodipodi:rx="11.428572"
           sodipodi:ry="30"
           d="m -734.28572,1042.3622 c 0,16.5685 -5.11675,30 -11.42857,30 -6.31183,0 -11.42858,-13.4315 -11.42858,-30 0,-16.5686 5.11675,-30 11.42858,-30 6.31182,0 11.42857,13.4314 11.42857,30 z" />
        <path
           sodipodi:type="arc"
           style="fill:#ff00ff"
           id="path2937"
           sodipodi:cx="-705.71429"
           sodipodi:cy="1045.2194"
           sodipodi:rx="11.428572"
           sodipodi:ry="30"
           d="m -694.28572,1045.2194 c 0,16.5685 -5.11675,30 -11.42857,30 -6.31183,0 -11.42858,-13.4315 -11.42858,-30 0,-16.5686 5.11675,-30 11.42858,-30 6.31182,0 11.42857,13.4314 11.42857,30 z" />
      </g>
      <path
         transform="matrix(1.1548023,0,0,1,1194.1727,-231.42857)"
         sodipodi:end="3.1092821"
         sodipodi:start="0"
         d="m -571.42859,845.2193 c 0,70.21906 -53.72583,127.14286 -120,127.14286 -64.76502,0 -117.84514,-54.45125 -119.93737,-123.03552 l 119.93737,-4.10734 z"
         sodipodi:ry="127.14286"
         sodipodi:rx="120"
         sodipodi:cy="845.2193"
         sodipodi:cx="-691.42859"
         id="path2945"
         style="fill:#00ff00"
         sodipodi:type="arc" />
      <path
         transform="matrix(0.51086956,0,0,0.68749999,526.55281,146.89889)"
         d="m -471.42854,666.64789 c 0,37.87095 -58.84258,68.57142 -131.42858,68.57142 -72.58599,0 -131.42857,-30.70047 -131.42857,-68.57142 0,-37.87095 58.84258,-68.57143 131.42857,-68.57143 72.586,0 131.42858,30.70048 131.42858,68.57143 z"
         sodipodi:ry="68.571426"
         sodipodi:rx="131.42857"
         sodipodi:cy="666.64789"
         sodipodi:cx="-602.85712"
         id="path2949"
         style="fill:#cccccc"
         sodipodi:type="arc" />
      <path
         transform="matrix(0.53846154,0,0,0.65957448,911.20878,309.61873)"
         d="m -477.14288,439.50504 c 0,37.08197 -58.20299,67.14286 -130,67.14286 -71.79702,0 -130,-30.06089 -130,-67.14286 0,-37.08198 58.20298,-67.14287 130,-67.14287 71.79701,0 130,30.06089 130,67.14287 z"
         sodipodi:ry="67.14286"
         sodipodi:rx="130"
         sodipodi:cy="439.50504"
         sodipodi:cx="-607.14288"
         id="path2951"
         style="fill:#cccccc"
         sodipodi:type="arc" />
      <path
         d="m 642.85716,573.79077 c 0,3.94489 -14.07105,7.14286 -31.42857,7.14286 -17.35752,0 -31.42857,-3.19797 -31.42857,-7.14286 0,-3.94489 14.07105,-7.14286 31.42857,-7.14286 17.35752,0 31.42857,3.19797 31.42857,7.14286 z"
         sodipodi:ry="7.1428571"
         sodipodi:rx="31.428572"
         sodipodi:cy="573.79077"
         sodipodi:cx="611.42859"
         id="path2955"
         style="fill:#000000"
         sodipodi:type="arc" />
      <path
         d="m 648.5714,606.64789 c 0,3.15591 -15.98983,5.71428 -35.71428,5.71428 -19.72446,0 -35.71429,-2.55837 -35.71429,-5.71428 0,-3.15591 15.98983,-5.71429 35.71429,-5.71429 19.72445,0 35.71428,2.55838 35.71428,5.71429 z"
         sodipodi:ry="5.7142859"
         sodipodi:rx="35.714287"
         sodipodi:cy="606.64789"
         sodipodi:cx="612.85712"
         id="path2957"
         style="fill:#000000"
         sodipodi:type="arc" />
      <path
         transform="matrix(1.1666667,0,0,1,-31.904763,0)"
         d="m 225.71429,596.64789 c 0,5.52285 -15.35024,10 -34.28572,10 -18.93547,0 -34.28571,-4.47715 -34.28571,-10 0,-5.52285 15.35024,-10 34.28571,-10 18.93548,0 34.28572,4.47715 34.28572,10 z"
         sodipodi:ry="10"
         sodipodi:rx="34.285713"
         sodipodi:cy="596.64789"
         sodipodi:cx="191.42857"
         id="path2959"
         style="fill:#000000"
         sodipodi:type="arc" />
      <path
         transform="translate(2.8571429,-17.142857)"
         d="m 231.42857,638.07648 c 0,4.73387 -17.90861,8.57143 -40,8.57143 -22.09139,0 -40,-3.83756 -40,-8.57143 0,-4.73387 17.90861,-8.57143 40,-8.57143 22.09139,0 40,3.83756 40,8.57143 z"
         sodipodi:ry="8.5714283"
         sodipodi:rx="40"
         sodipodi:cy="638.07648"
         sodipodi:cx="191.42857"
         id="path2961"
         style="fill:#000000"
         sodipodi:type="arc" />
    </g>
  </g>
</svg>
