<?xml version="1.0" encoding="UTF-8" standalone="no"?>
<svg
   xmlns:dc="http://purl.org/dc/elements/1.1/"
   xmlns:cc="http://creativecommons.org/ns#"
   xmlns:rdf="http://www.w3.org/1999/02/22-rdf-syntax-ns#"
   xmlns:svg="http://www.w3.org/2000/svg"
   xmlns="http://www.w3.org/2000/svg"
   xmlns:sodipodi="http://sodipodi.sourceforge.net/DTD/sodipodi-0.dtd"
   xmlns:inkscape="http://www.inkscape.org/namespaces/inkscape"
   version="1.1"
   id="svg2"
   xml:space="preserve"
   width="258.66666"
   height="258.66666"
   viewBox="0 0 258.66666 258.66666"
   sodipodi:docname="Lightyear_Communications.eps"><metadata
     id="metadata8"><rdf:RDF><cc:Work
         rdf:about=""><dc:format>image/svg+xml</dc:format><dc:type
           rdf:resource="http://purl.org/dc/dcmitype/StillImage" /></cc:Work></rdf:RDF></metadata><defs
     id="defs6" /><sodipodi:namedview
     pagecolor="#ffffff"
     bordercolor="#666666"
     borderopacity="1"
     objecttolerance="10"
     gridtolerance="10"
     guidetolerance="10"
     inkscape:pageopacity="0"
     inkscape:pageshadow="2"
     inkscape:window-width="640"
     inkscape:window-height="480"
     id="namedview4" /><g
     id="g10"
     inkscape:groupmode="layer"
     inkscape:label="ink_ext_XXXXXX"
     transform="matrix(1.3333333,0,0,-1.3333333,0,258.66667)"><g
       id="g12"
       transform="scale(0.1)"><path
         d="M 2.59766,1933.23 H 1930.16 V 5.66797 H 2.59766 V 1933.23"
         style="fill:#ffffff;fill-opacity:1;fill-rule:evenodd;stroke:none"
         id="path14" /><path
         d="m 267.078,1195.2 h 19.906 v -130.21 h -19.906 v 130.21"
         style="fill:#225f98;fill-opacity:1;fill-rule:evenodd;stroke:none"
         id="path16" /><g
         id="g18"
         transform="scale(0.996853,1.00315)"><path
           d="m 267.921,1191.45 h 19.97 v -129.8 h -19.97 z"
           style="fill:none;stroke:#225f98;stroke-width:6.13807;stroke-linecap:butt;stroke-linejoin:miter;stroke-miterlimit:2.6131;stroke-dasharray:none;stroke-opacity:1"
           id="path20" /></g><path
         d="m 1479.96,1175.17 31.29,-62.96 h -65.41 l 32.7,62.96 z m -78.2,-110.18 h 19.91 l 17.06,31.48 h 81.05 l 17.06,-31.48 h 19.91 l -68.25,130.21 h -18.49 l -68.25,-130.21"
         style="fill:#225f98;fill-opacity:1;fill-rule:evenodd;stroke:none"
         id="path22" /><g
         id="g24"
         transform="scale(0.996853,1.00315)"><path
           d="m 1484.64,1171.48 31.38,-62.76 h -65.62 l 32.81,62.76 z m -78.45,-109.83 h 19.97 l 17.11,31.38 h 81.31 l 17.12,-31.38 h 19.97 l -68.47,129.8 h -18.55 z"
           style="fill:none;stroke:#225f98;stroke-width:6.13807;stroke-linecap:butt;stroke-linejoin:miter;stroke-miterlimit:2.6131;stroke-dasharray:none;stroke-opacity:1"
           id="path26" /></g><path
         d="m 1212.64,1195.2 h 118.02 v -17.17 h -99.53 v -38.63 h 96.69 v -15.74 h -96.69 v -42.93 h 103.8 v -15.74 h -122.29 v 130.21"
         style="fill:#225f98;fill-opacity:1;fill-rule:evenodd;stroke:none"
         id="path28" /><g
         id="g30"
         transform="scale(0.996853,1.00315)"><path
           d="m 1216.47,1191.45 h 118.4 v -17.11 h -99.85 v -38.52 h 96.99 v -15.69 h -96.99 v -42.79 h 104.12 v -15.69 h -122.67 z"
           style="fill:none;stroke:#225f98;stroke-width:6.13807;stroke-linecap:butt;stroke-linejoin:miter;stroke-miterlimit:2.6131;stroke-dasharray:none;stroke-opacity:1"
           id="path32" /></g><path
         d="M 92.1836,1195.2 H 112.09 v -114.47 h 85.312 v -15.74 H 92.1836 v 130.21"
         style="fill:#225f98;fill-opacity:1;fill-rule:evenodd;stroke:none"
         id="path34" /><g
         id="g36"
         transform="scale(0.996853,1.00315)"><path
           d="m 92.4747,1191.45 h 19.9693 v -114.11 h 85.582 v -15.69 H 92.4747 Z"
           style="fill:none;stroke:#225f98;stroke-width:6.13807;stroke-linecap:butt;stroke-linejoin:miter;stroke-miterlimit:2.6131;stroke-dasharray:none;stroke-opacity:1"
           id="path38" /></g><path
         d="m 501.691,1082.16 c -2.843,-2.86 -19.906,-21.46 -56.875,-21.46 -44.082,0 -73.941,31.48 -73.941,68.68 0,40.07 32.703,68.68 78.207,68.68 45.5,0 63.984,-25.75 66.828,-31.47 L 498.848,1158 c -1.422,2.86 -14.219,24.32 -48.344,24.32 -32.703,0 -59.719,-18.6 -59.719,-51.51 0,-31.48 24.168,-54.37 58.297,-54.37 32.703,0 51.188,20.03 54.031,41.49 h -58.297 v 15.75 h 72.516 v -68.69 h -15.641 v 17.17"
         style="fill:#225f98;fill-opacity:1;fill-rule:evenodd;stroke:none"
         id="path40" /><g
         id="g42"
         transform="scale(0.996853,1.00315)"><path
           d="m 503.275,1078.76 c -2.852,-2.85 -19.969,-21.39 -57.054,-21.39 -44.221,0 -74.175,31.38 -74.175,68.47 0,39.94 32.806,68.46 78.454,68.46 45.644,0 64.186,-25.67 67.039,-31.37 l -17.116,-8.56 c -1.427,2.85 -14.264,24.24 -48.497,24.24 -32.806,0 -59.907,-18.54 -59.907,-51.35 0,-31.38 24.244,-54.2 58.481,-54.2 32.806,0 51.349,19.97 54.202,41.37 h -58.481 v 15.69 h 72.744 v -68.47 h -15.69 z"
           style="fill:none;stroke:#225f98;stroke-width:6.13807;stroke-linecap:butt;stroke-linejoin:miter;stroke-miterlimit:2.6131;stroke-dasharray:none;stroke-opacity:1"
           id="path44" /></g><path
         d="m 820.199,1195.2 h 123.707 v -15.74 h -52.613 v -114.47 h -18.484 v 114.47 h -52.61 v 15.74"
         style="fill:#225f98;fill-opacity:1;fill-rule:evenodd;stroke:none"
         id="path46" /><g
         id="g48"
         transform="scale(0.996853,1.00315)"><path
           d="m 822.789,1191.45 h 124.098 v -15.69 h -52.78 v -114.11 h -18.543 v 114.11 h -52.775 z"
           style="fill:none;stroke:#225f98;stroke-width:6.13807;stroke-linecap:butt;stroke-linejoin:miter;stroke-miterlimit:2.6131;stroke-dasharray:none;stroke-opacity:1"
           id="path50" /></g><path
         d="m 1074.72,1130.81 51.19,64.39 h 22.75 l -65.41,-80.13 v -50.08 h -18.48 v 51.51 l -63.99,78.7 h 22.75 l 51.19,-64.39 v 0"
         style="fill:#225f98;fill-opacity:1;fill-rule:evenodd;stroke:none"
         id="path52" /><g
         id="g54"
         transform="scale(0.996853,1.00315)"><path
           d="m 1078.12,1127.26 51.35,64.19 h 22.82 l -65.62,-79.88 v -49.92 h -18.54 V 1113 l -64.19,78.45 h 22.82 l 51.36,-64.19 z"
           style="fill:none;stroke:#225f98;stroke-width:6.13807;stroke-linecap:butt;stroke-linejoin:miter;stroke-miterlimit:2.6131;stroke-dasharray:none;stroke-opacity:1"
           id="path56" /></g><path
         d="m 615.441,1195.2 h 18.489 v -54.37 h 98.109 v 54.37 h 18.488 v -130.21 h -18.488 v 61.53 H 633.93 v -61.53 h -18.489 v 130.21"
         style="fill:#225f98;fill-opacity:1;fill-rule:evenodd;stroke:none"
         id="path58" /><g
         id="g60"
         transform="scale(0.996853,1.00315)"><path
           d="m 617.385,1191.45 h 18.546 v -54.2 h 98.419 v 54.2 h 18.547 v -129.8 H 734.35 v 61.33 h -98.419 v -61.33 h -18.546 z"
           style="fill:none;stroke:#225f98;stroke-width:6.13807;stroke-linecap:butt;stroke-linejoin:miter;stroke-miterlimit:2.6131;stroke-dasharray:none;stroke-opacity:1"
           id="path62" /></g><path
         d="m 1710.31,1179.46 c 24.18,0 31.29,-11.45 31.29,-24.32 0,-15.74 -11.38,-22.9 -31.29,-22.9 h -65.4 v 47.22 z m -83.89,-114.47 h 18.49 v 51.51 h 61.14 l 44.08,-51.51 h 24.17 l -46.92,52.94 c 7.11,1.43 34.12,7.16 34.12,38.64 0,20.03 -14.22,38.63 -46.92,38.63 h -88.16 v -130.21"
         style="fill:#225f98;fill-opacity:1;fill-rule:evenodd;stroke:none"
         id="path64" /><g
         id="g66"
         transform="scale(0.996853,1.00315)"><path
           d="m 1715.71,1175.76 c 24.25,0 31.39,-11.41 31.39,-24.25 0,-15.69 -11.41,-22.82 -31.39,-22.82 h -65.61 v 47.07 z m -84.15,-114.11 h 18.54 V 1113 h 61.34 l 44.21,-51.35 h 24.25 l -47.07,52.78 c 7.13,1.42 34.24,7.13 34.24,38.51 0,19.97 -14.27,38.51 -47.08,38.51 h -88.43 z"
           style="fill:none;stroke:#225f98;stroke-width:6.13807;stroke-linecap:butt;stroke-linejoin:miter;stroke-miterlimit:2.6131;stroke-dasharray:none;stroke-opacity:1"
           id="path68" /></g><path
         d="m 97.8672,966.262 c 0,4.289 11.3748,4.289 49.7698,4.289 76.781,0 1475.943,0 1463.143,0 38.39,0 54.04,0 54.04,-4.289 0,-2.864 -12.8,-4.297 -61.15,-4.297 11.38,0 -1365.029,0 -1444.658,0 -46.922,0 -61.1448,0 -61.1448,4.297"
         style="fill:#225f98;fill-opacity:1;fill-rule:evenodd;stroke:none"
         id="path70" /><g
         id="g72"
         transform="scale(0.996853,1.00315)"><path
           d="m 98.1762,963.23 c 0,4.276 11.4108,4.276 49.9268,4.276 77.024,0 1480.597,0 1467.767,0 38.51,0 54.2,0 54.2,-4.276 0,-2.854 -12.84,-4.283 -61.33,-4.283 11.41,0 -1369.346,0 -1449.226,0 -47.07,0 -61.3378,0 -61.3378,4.283 z"
           style="fill:none;stroke:#225f98;stroke-width:2.23509;stroke-linecap:butt;stroke-linejoin:miter;stroke-miterlimit:2.6131;stroke-dasharray:none;stroke-opacity:1"
           id="path74" /></g><path
         d="m 220.156,899.008 c -28.441,0 -55.457,0 -55.457,5.722 0,4.293 8.531,5.723 45.5,7.157 54.035,1.429 688.203,12.879 813.331,20.031 120.86,5.723 240.31,7.156 372.54,-2.863 92.43,-7.153 255.95,-15.739 290.07,-18.602 29.86,-1.43 52.61,-5.723 52.61,-11.445 0,-2.863 -5.68,-5.723 -27.01,-5.723 -12.8,0 -31.29,1.43 -51.19,2.86 -44.08,2.863 -187.69,15.742 -278.69,24.328 -120.87,11.445 -241.73,11.445 -379.66,2.859 C 841.527,913.316 242.906,899.008 220.156,899.008"
         style="fill:#225f98;fill-opacity:1;fill-rule:evenodd;stroke:none"
         id="path76" /><g
         id="g78"
         transform="scale(0.996853,1.00315)"><path
           d="m 220.851,896.187 c -28.531,0 -55.632,0 -55.632,5.705 0,4.279 8.558,5.704 45.644,7.134 54.206,1.425 690.376,12.838 815.897,19.968 121.25,5.705 241.07,7.134 373.72,-2.854 92.72,-7.13 256.75,-15.689 290.99,-18.544 29.95,-1.425 52.77,-5.704 52.77,-11.409 0,-2.854 -5.7,-5.705 -27.1,-5.705 -12.84,0 -31.38,1.426 -51.35,2.851 -44.22,2.854 -188.28,15.693 -279.57,24.252 -121.25,11.409 -242.49,11.409 -380.85,2.85 -161.186,-9.984 -761.697,-24.248 -784.519,-24.248 z"
           style="fill:none;stroke:#225f98;stroke-width:2.23509;stroke-linecap:butt;stroke-linejoin:miter;stroke-miterlimit:2.6131;stroke-dasharray:none;stroke-opacity:1"
           id="path80" /></g><path
         d="m 319.688,837.48 c -25.594,0 -46.922,0 -46.922,7.153 0,4.293 12.797,7.156 54.031,8.586 170.629,5.722 584.406,22.894 695.313,35.773 73.94,8.586 137.93,14.309 197.64,14.309 54.04,0 103.8,-4.293 156.41,-15.742 140.77,-28.618 308.56,-45.789 344.11,-50.079 31.28,-4.292 48.34,-10.019 48.34,-17.171 0,-5.727 -9.95,-8.586 -28.43,-8.586 -14.22,0 -34.13,2.859 -58.3,5.722 -44.08,5.727 -199.07,31.481 -336.99,61.532 -51.19,11.445 -98.12,15.738 -147.89,15.738 -52.61,0 -108.06,-4.293 -174.89,-14.309 -136.501,-17.172 -568.762,-37.203 -681.094,-42.926 -7.11,0 -14.219,0 -21.328,0"
         style="fill:#225f98;fill-opacity:1;fill-rule:evenodd;stroke:none"
         id="path82" /><g
         id="g84"
         transform="scale(0.996853,1.00315)"><path
           d="m 320.697,834.853 c -25.675,0 -47.07,0 -47.07,7.13 0,4.279 12.837,7.133 54.202,8.559 171.167,5.704 586.251,22.822 697.511,35.661 74.17,8.559 138.36,14.264 198.27,14.264 54.2,0 104.12,-4.28 156.9,-15.693 141.21,-28.528 309.53,-45.646 345.19,-49.921 31.38,-4.28 48.5,-9.988 48.5,-17.118 0,-5.709 -9.99,-8.559 -28.53,-8.559 -14.26,0 -34.23,2.85 -58.48,5.704 -44.22,5.709 -199.7,31.382 -338.06,61.339 -51.35,11.409 -98.42,15.689 -148.35,15.689 -52.77,0 -108.4,-4.28 -175.44,-14.264 -136.934,-17.118 -570.561,-37.087 -683.248,-42.791 -7.131,0 -14.263,0 -21.395,0 z"
           style="fill:none;stroke:#225f98;stroke-width:2.23509;stroke-linecap:butt;stroke-linejoin:miter;stroke-miterlimit:2.6131;stroke-dasharray:none;stroke-opacity:1"
           id="path86" /></g><path
         d="m 457.613,780.246 c -21.328,0 -39.812,0 -39.812,5.723 0,7.152 17.062,10.015 55.453,11.445 126.551,7.156 375.383,21.465 509.043,45.789 93.843,15.738 159.253,22.895 210.443,22.895 51.19,0 88.16,-5.723 125.13,-17.172 85.31,-25.754 253.1,-70.113 327.04,-87.285 31.28,-5.723 49.77,-14.309 49.77,-21.461 0,-4.293 -5.7,-10.016 -25.6,-10.016 -18.49,0 -39.81,4.289 -72.52,12.875 -51.18,12.879 -170.63,51.512 -304.29,97.305 -36.97,11.445 -72.52,18.597 -120.86,18.597 -45.5,0 -102.37,-5.722 -182.004,-21.461 -126.551,-25.757 -344.101,-44.359 -477.761,-55.808 -18.485,-1.426 -38.391,-1.426 -54.032,-1.426"
         style="fill:#225f98;fill-opacity:1;fill-rule:evenodd;stroke:none"
         id="path88" /><g
         id="g90"
         transform="scale(0.996853,1.00315)"><path
           d="m 459.058,777.798 c -21.395,0 -39.938,0 -39.938,5.705 0,7.13 17.116,9.984 55.628,11.409 126.951,7.134 376.568,21.398 510.65,45.645 94.142,15.689 159.762,22.823 211.102,22.823 51.36,0 88.44,-5.705 125.53,-17.118 85.58,-25.673 253.9,-69.893 328.07,-87.011 31.38,-5.705 49.93,-14.264 49.93,-21.394 0,-4.279 -5.71,-9.984 -25.68,-9.984 -18.54,0 -39.94,4.276 -72.75,12.835 -51.35,12.838 -171.16,51.35 -305.25,96.999 -37.08,11.409 -72.74,18.539 -121.24,18.539 -45.64,0 -102.7,-5.704 -182.58,-21.393 -126.95,-25.677 -345.188,-44.22 -479.27,-55.634 -18.543,-1.421 -38.512,-1.421 -54.202,-1.421 z"
           style="fill:none;stroke:#225f98;stroke-width:2.23509;stroke-linecap:butt;stroke-linejoin:miter;stroke-miterlimit:2.6131;stroke-dasharray:none;stroke-opacity:1"
           id="path92" /></g><path
         d="m 638.195,728.73 c -18.484,0 -28.437,1.434 -28.437,5.723 0,7.156 15.64,11.449 54.031,15.742 88.16,8.586 186.27,18.602 291.492,42.926 91.009,22.895 153.569,34.34 200.489,34.34 38.39,0 68.25,-7.152 96.69,-20.031 92.43,-42.926 172.05,-77.266 204.75,-91.578 25.6,-10.012 39.82,-21.461 39.82,-30.047 0,-5.723 -5.69,-8.586 -19.91,-8.586 -17.06,0 -42.66,7.156 -76.78,24.324 -38.39,17.172 -102.38,55.805 -173.48,97.305 -25.59,14.308 -48.34,21.461 -83.89,21.461 -41.23,0 -96.68,-10.016 -187.689,-35.774 -78.207,-21.461 -154.988,-37.203 -236.035,-48.648 -28.441,-4.293 -59.723,-7.157 -81.051,-7.157"
         style="fill:#225f98;fill-opacity:1;fill-rule:evenodd;stroke:none"
         id="path94" /><g
         id="g96"
         transform="scale(0.996853,1.00315)"><path
           d="m 640.21,726.444 c -18.542,0 -28.527,1.429 -28.527,5.705 0,7.133 15.69,11.413 54.202,15.692 88.438,8.559 186.858,18.544 292.412,42.792 91.293,22.822 154.053,34.232 201.123,34.232 38.51,0 68.47,-7.13 96.99,-19.969 92.72,-42.791 172.6,-77.023 205.41,-91.29 25.67,-9.981 39.94,-21.394 39.94,-29.953 0,-5.705 -5.71,-8.559 -19.98,-8.559 -17.11,0 -42.79,7.134 -77.02,24.248 -38.51,17.118 -102.7,55.629 -174.02,96.999 -25.68,14.264 -48.5,21.394 -84.16,21.394 -41.36,0 -96.99,-9.984 -188.283,-35.661 -78.453,-21.394 -155.477,-37.087 -236.78,-48.496 -28.531,-4.28 -59.911,-7.134 -81.307,-7.134 z"
           style="fill:none;stroke:#225f98;stroke-width:2.23509;stroke-linecap:butt;stroke-linejoin:miter;stroke-miterlimit:2.6131;stroke-dasharray:none;stroke-opacity:1"
           id="path98" /></g><path
         d="m 1807,1178.03 c 2.85,-1.43 5.69,-1.43 5.69,-4.29 0,-4.29 -4.26,-5.73 -7.11,-5.73 -2.84,0 -4.26,0 -5.69,1.44 -2.84,1.43 -2.84,4.29 -2.84,5.72 l -4.26,-1.43 c 1.42,-8.59 9.95,-10.02 12.79,-10.02 1.42,0 4.27,1.43 7.11,2.87 2.85,1.42 4.27,4.29 4.27,7.15 0,1.43 -1.42,4.29 -5.69,7.15 -1.42,0 -2.84,0 -4.27,1.43 h -2.84 c -2.84,1.43 -5.69,1.43 -5.69,4.3 0,2.86 2.85,4.29 5.69,4.29 2.84,0 4.27,0 5.69,-1.43 1.42,-1.43 2.84,-2.86 2.84,-4.3 h 2.85 c 0,2.87 0,5.73 -2.85,7.16 -2.84,1.43 -5.69,1.43 -8.53,1.43 -1.42,0 -4.27,0 -7.11,-1.43 -1.42,-1.43 -2.84,-2.86 -2.84,-5.72 0,-5.73 5.68,-7.16 9.95,-8.59 h 2.84"
         style="fill:#225f98;fill-opacity:1;fill-rule:evenodd;stroke:none"
         id="path100" /><path
         d="m 1843.98,1193.77 -8.53,-22.89 -8.54,22.89 h -4.27 v -28.62 h 2.85 v 22.9 l 8.53,-22.9 h 2.84 l 8.53,24.33 v -24.33 h 4.27 v 28.62 h -5.68"
         style="fill:#225f98;fill-opacity:1;fill-rule:evenodd;stroke:none"
         id="path102" /></g></g></svg>
